<?xml version="1.0" standalone="no"?>
<!DOCTYPE svg PUBLIC "-//W3C//DTD SVG 20010904//EN"
 "http://www.w3.org/TR/2001/REC-SVG-20010904/DTD/svg10.dtd">
<svg version="1.0" xmlns="http://www.w3.org/2000/svg"
 width="300.000000pt" height="102.000000pt" viewBox="0 0 300.000000 102.000000"
 preserveAspectRatio="xMidYMid meet">

<g transform="translate(0.000000,102.000000) scale(0.100000,-0.100000)"
fill="#000000" stroke="none">
<path d="M2393 999 c-23 -11 -46 -26 -51 -32 -12 -15 -373 -903 -380 -934 -2
-13 0 -23 5 -23 11 0 110 179 363 660 155 295 169 326 153 337 -23 18 -41 16
-90 -8z"/>
<path d="M654 876 c-167 -113 -276 -197 -299 -229 -17 -24 -19 -65 -5 -87 8
-12 19 -11 81 9 40 13 110 26 155 29 71 4 88 2 128 -18 25 -12 46 -25 46 -29
0 -17 -39 -39 -115 -65 -233 -80 -565 -281 -631 -381 -15 -23 -15 -27 0 -51
37 -56 66 -51 271 50 200 97 368 207 501 329 60 54 66 50 29 -22 -13 -27 -32
-76 -41 -110 -16 -56 -16 -62 0 -85 17 -28 53 -34 86 -16 11 6 31 47 51 107
46 140 91 234 135 283 43 47 41 59 -17 98 -52 36 -69 27 -114 -60 -24 -47 -46
-78 -56 -78 -8 0 -28 13 -44 30 -47 49 -104 65 -237 65 -65 0 -118 3 -118 6 0
4 16 21 35 38 65 57 170 101 393 167 19 5 -12 74 -46 101 -15 13 -29 23 -32
22 -3 0 -73 -46 -156 -103z m8 -440 c-96 -123 -552 -409 -552 -347 0 20 83 96
163 149 74 51 384 222 400 222 5 0 0 -11 -11 -24z"/>
<path d="M1147 912 c-49 -54 -80 -105 -75 -128 2 -9 32 14 82 65 54 54 77 84
73 95 -11 27 -32 18 -80 -32z"/>
<path d="M1920 874 c-100 -67 -267 -247 -350 -378 -100 -158 -188 -276 -206
-276 -38 0 -29 166 19 332 l34 118 -22 20 c-13 12 -35 20 -57 20 l-35 0 -6
-252 c-6 -228 -5 -254 10 -265 20 -15 57 -17 83 -3 10 5 64 76 121 157 191
275 206 292 321 360 57 33 145 83 197 111 l94 50 -29 15 c-16 8 -49 18 -74 22
-41 5 -50 2 -100 -31z"/>
<path d="M2726 794 c-32 -31 -10 -94 33 -94 23 0 51 31 51 57 0 23 -29 53 -53
53 -8 0 -23 -7 -31 -16z m64 -8 c28 -35 -11 -93 -47 -70 -36 22 -23 84 17 84
10 0 23 -7 30 -14z"/>
<path d="M2740 755 c0 -23 3 -27 10 -15 8 12 11 13 19 1 6 -9 9 -5 9 14 0 19
-3 23 -9 14 -8 -12 -11 -11 -19 1 -7 12 -10 8 -10 -15z"/>
<path d="M1892 683 c-75 -37 -186 -192 -244 -339 -35 -91 -38 -132 -13 -150
50 -36 104 2 191 133 57 85 94 120 114 108 13 -8 13 -106 0 -141 -15 -39 -8
-39 35 3 39 39 88 133 100 191 6 31 6 32 -30 32 -59 0 -106 -33 -214 -149 -57
-61 -107 -111 -111 -111 -11 0 22 105 50 160 61 121 147 197 254 225 32 8 61
16 63 19 2 2 -14 11 -37 20 -51 20 -116 20 -158 -1z"/>
<path d="M2493 679 c-72 -35 -138 -117 -201 -247 -81 -166 -89 -194 -68 -227
35 -53 117 -27 291 91 190 128 180 145 -18 29 -142 -83 -187 -100 -187 -71 0
23 51 154 64 164 6 5 38 19 71 32 98 38 194 91 220 122 29 34 33 88 9 112 -24
24 -128 21 -181 -5z m127 -73 c0 -41 -23 -62 -114 -105 -73 -35 -106 -46 -106
-33 0 17 113 133 149 152 55 29 71 26 71 -14z"/>
<path d="M2665 301 c-82 -38 -151 -74 -153 -80 -2 -6 -1 -11 2 -11 11 0 311
141 320 150 23 23 -27 5 -169 -59z"/>
<path d="M2825 279 c-71 -28 -141 -55 -154 -60 -17 -7 -21 -13 -14 -20 17 -17
335 90 331 110 -5 27 -28 22 -163 -30z"/>
</g>
</svg>
